<svg width="291.8556640625px" height="262.8800109863281px" xmlns="http://www.w3.org/2000/svg" viewBox="104.07216796875 -56.44000549316405 291.8556640625 262.8800109863281" style="background: rgba(0, 0, 0, 0);" preserveAspectRatio="xMidYMid"><defs>
  <filter id="editing-scratch" x="-100%" y="-100%" width="300%" height="300%">
    <!-- COLOR -->
    <feFlood flood-color="#ddd" flood-opacity="0.75" result="COLOR-blu"></feFlood>
    <feFlood flood-color="#666" flood-opacity="0.4" result="COLOR-red"></feFlood>
    <!-- COLOR END -->

    <!-- Texture -->
    <feTurbulence baseFrequency=".05" type="fractalNoise" numOctaves="3" seed="0" result="Texture_10"></feTurbulence>
    <feColorMatrix type="matrix" values="0 0 0 0 0,
    0 0 0 0 0,
    0 0 0 0 0,
    0 0 0 -2.1 1.1" in="Texture_10" result="Texture_20"></feColorMatrix>

    <feColorMatrix result="Texture_30" type="matrix" values="0 0 0 0 0,
    0 0 0 0 0,
    0 0 0 0 0,
    0 0 0 -1.7 1.8" in="Texture_10"></feColorMatrix>
    <!-- Texture -->

    <!-- FILL -->
    <feOffset dx="-3" dy="4" in="SourceAlpha" result="FILL_10"></feOffset>
    <feDisplacementMap scale="17" in="FILL_10" in2="Texture_10" result="FILL_20"></feDisplacementMap>
    <feComposite operator="in" in="Texture_30" in2="FILL_20" result="FILL_40"></feComposite>
    <feComposite operator="in" in="COLOR-blu" in2="FILL_40" result="FILL_50"></feComposite>
    <!-- FILL END-->

    <!-- OUTLINE -->
    <feMorphology operator="dilate" radius="3" in="SourceGraphic" result="OUTLINE_10"></feMorphology>
    <feComposite operator="out" in="OUTLINE_10" in2="SourceGraphic" result="OUTLINE_20"></feComposite>
    <feDisplacementMap scale="7" in="OUTLINE_20" in2="Texture_10" result="OUTLINE_30"></feDisplacementMap>
    <feComposite operator="arithmetic" k2="-1" k3="1" in="Texture_20" in2="OUTLINE_30" result="OUTLINE_40"></feComposite>
    <!-- OUTLINE END-->

    <!-- BEVEL OUTLINE -->
    <feConvolveMatrix order="8,8" divisor="1" kernelMatrix="1 0 0 0 0 0 0 0 0 1 0 0 0 0 0 0 0 0 1 0 0 0 0 0 0 0 0 1 0 0 0 0 0 0 0 0 1 0 0 0 0 0 0 0 0 1 0 0 0 0 0 0 0 0 1 0 0 0 0 0 0 0 0 1 " in="SourceGraphic" result="BEVEL_10"></feConvolveMatrix>
    <feMorphology operator="dilate" radius="2" in="BEVEL_10" result="BEVEL_20"></feMorphology>
    <feComposite operator="out" in="BEVEL_20" in2="BEVEL_10" result="BEVEL_30"></feComposite>
    <feDisplacementMap scale="7" in="BEVEL_30" in2="Texture_10" result="BEVEL_40"></feDisplacementMap>
    <feComposite operator="arithmetic" k2="-1" k3="1" in="Texture_20" in2="BEVEL_40" result="BEVEL_50"></feComposite>
    <feOffset dx="-7" dy="-7" in="BEVEL_50" result="BEVEL_60"></feOffset>
    <feComposite operator="out" in="BEVEL_60" in2="OUTLINE_10" result="BEVEL_70"></feComposite>
    <!-- BEVEL OUTLINE END -->

    <!-- BEVEL FILL -->
    <feOffset dx="-9" dy="-9" in="BEVEL_10" result="BEVEL-FILL_10"></feOffset>
    <feComposite operator="out" in="BEVEL-FILL_10" in2="OUTLINE_10" result="BEVEL-FILL_20"></feComposite>
    <feDisplacementMap scale="17" in="BEVEL-FILL_20" in2="Texture_10" result="BEVEL-FILL_30"></feDisplacementMap>
    <feComposite operator="in" in="COLOR-red" in2="BEVEL-FILL_30" result="BEVEL-FILL_50"></feComposite> <!-- -->
    <!-- BEVEL FILL END-->

    <feMerge result="merge2">
     <feMergeNode in="BEVEL-FILL_50"></feMergeNode>
     <feMergeNode in="BEVEL_70"></feMergeNode>
     <feMergeNode in="FILL_50"></feMergeNode>
      <feMergeNode in="OUTLINE_40"></feMergeNode>
    </feMerge>
  </filter>
</defs>
<g filter="url(#editing-scratch)"><g transform="translate(156.3296661376953, 128.5500020980835)"><path d="M69.77 3.06L69.77 3.06L69.77 3.06Q50.18 3.06 48.35-24.79L48.35-24.79L22.03-24.79L22.03-24.79Q18.97-17.75 16.83-11.63L16.83-11.63L12.85 0L-8.57 0L39.63-100.98L72.52-100.98L78.95-26.62L78.95-26.62Q80.48-10.56 86.60-5.81L86.60-5.81L86.60-5.81Q82.16 3.06 69.77 3.06ZM35.19-55.39L26.77-35.95L47.89-35.95L46.05-75.28L46.05-79.41L35.19-55.39ZM173.65-31.67L173.65-31.67L173.65-31.67Q177.63-28.76 177.63-22.57L177.63-22.57L177.63-22.57Q177.63-16.37 174.96-12.01L174.96-12.01L174.96-12.01Q172.28-7.65 167.08-4.28L167.08-4.28L167.08-4.28Q155.91 2.91 136.40 2.91L136.40 2.91L136.40 2.91Q116.89 2.91 106.26-7.27L106.26-7.27L106.26-7.27Q95.62-17.44 95.62-35.50L95.62-35.50L95.62-35.50Q95.62-61.05 108.94-80.48L108.94-80.48L108.94-80.48Q119.03-94.86 137.09-100.98L137.09-100.98L137.09-100.98Q146.42-104.04 155.60-104.04L155.60-104.04L155.60-104.04Q164.78-104.04 170.44-102.82L170.44-102.82L170.44-102.82Q176.10-101.59 180.39-99.14L180.39-99.14L180.39-99.14Q189.72-93.79 189.72-85.22L189.72-85.22L189.72-85.22Q189.72-77.42 182.38-71.60L182.38-71.60L182.38-71.60Q175.64-66.40 170.14-66.40L170.14-66.40L170.14-66.40Q164.63-66.40 162.33-67.17L162.33-67.17L162.33-67.17Q162.94-72.67 162.94-76.27L162.94-76.27L162.94-76.27Q162.94-79.87 162.79-82.47L162.79-82.47L162.79-82.47Q162.64-85.07 161.87-87.52L161.87-87.52L161.87-87.52Q160.34-93.18 155.68-93.18L155.68-93.18L155.68-93.18Q151.01-93.18 146.34-88.82L146.34-88.82L146.34-88.82Q141.68-84.46 137.70-77.11L137.70-77.11L137.70-77.11Q128.67-60.44 128.67-40.70L128.67-40.70L128.67-40.70Q128.67-31.21 134.03-25.78L134.03-25.78L134.03-25.78Q139.38-20.35 150.86-20.35L150.86-20.35L150.86-20.35Q159.43-20.35 167.53-26.01L167.53-26.01L167.53-26.01Q171.05-28.46 173.65-31.67Z" fill="#000"></path></g></g><style>text {
  font-size: 64px;
  font-family: Arial Black;
  dominant-baseline: central;
  text-anchor: middle;
}</style></svg>